Amir Khan v Paul McCloskey PPV XviD XS[ICM369]

MANCHESTER, ENGLAND, The April 16th world championship bout between reigning
WBA light-welterweight champion Amir ‘King’ Khan and undefeated European
champion Paul McCloskey, taking place at the M.E.N Arena in Manchester.

Primetime is a dedicated combat sports channel which has shown a number of 
live world title fights including those of British star and current WBC 
world super middleweight champion Carl Froch.
__________

Format                           : AVI
Format/Info                      : Audio Video Interleave
File size                        : 396 MiB
Duration                         : 31mn 20s
Overall bit rate                 : 1 766 Kbps
Writing application              : Lavf52.94.0
Writing library                  : Boilsoft AVI tool build 1/release


Video
ID                               : 0
Format                           : xvid
Codec ID                         : xvid
Duration                         : 31mn 20s
Bit rate                         : 1 497 Kbps
Width                            : 640 pixels
Height                           : 360 pixels
Display aspect ratio             : 16:9
Frame rate                       : 25.000 fps
Bits/(Pixel*Frame)               : 0.260
Stream size                      : 336 MiB (85%)

Audio
ID                               : 1
Format                           : MPEG Audio
Format version                   : Version 1
Format profile                   : Layer 3
Mode                             : Joint stereo
Mode extension                   : MS Stereo
Codec ID                         : 55
Codec ID/Hint                    : MP3
Duration                         : 31mn 20s
Bit rate mode                    : Constant
Bit rate                         : 256 Kbps
Channel(s)                       : 2 channels
Sampling rate                    : 48.0 KHz
Compression mode                 : Lossy
Stream size                      : 57.4 MiB (14%)
Alignment                        : Aligned on interleaves
Interleave, duration             : 24 ms (0.60 video frame)
Interleave, preload duration     : 504 ms
Writing library                  : LAME3.98.4qAKHDƒ^
__________

Enjoy:D